<?xml version="1.0" encoding="UTF-8"?>
<svg data-bbox="0 -0.016 539.27 540.472" viewBox="0 0 539.27 540.46" xmlns="http://www.w3.org/2000/svg" data-type="color">
    <g>
        <g>
            <path d="M376.7 145.22c-5.27-3.71-10.76-7.11-16.27-10.46-1.99-1.22-2.46-2.46-2.35-4.83.29-7.01-.03-14.04.18-21.06.04-1.49.95-3.51 2.12-4.32 5.77-3.99 11.83-7.57 17.67-11.48 5.83-3.9 7.89-10.19 4.68-16.12-5.94-10.96-12.06-21.85-18.69-32.4-5.1-8.12-9.59-9.1-18.26-5.08-5.97 2.77-11.81 5.86-17.58 9.02-2.05 1.12-3.37 1-5.37-.28-5.65-3.63-11.42-7.14-17.43-10.12-2.65-1.32-3.54-2.8-3.62-5.5-.2-6.74-.47-13.48-.92-20.21C300.4 5.49 296.1.46 289.24.25c-12.89-.38-25.83-.4-38.71.25-8.35.42-11.12 3.64-11.94 11.88-.7 6.98-.7 14.03-1.33 21.02-.14 1.47-1.39 3.33-2.67 4.12-6.06 3.78-12.27 7.34-18.55 10.75-1.22.66-3.28.89-4.46.31-6.33-3.03-12.45-6.49-18.75-9.61-6.21-3.07-13.14-1.82-16.48 3.67-6.79 11.13-13.36 22.42-19.44 33.95-3.7 7.01-2.38 11.29 4.09 16.01 5.66 4.14 11.68 7.78 17.62 11.54 1.98 1.26 2.79 2.47 2.61 5.14-.44 6.71-.47 13.49-.05 20.19.19 2.98-.78 4.35-3.06 5.74-5.75 3.52-11.46 7.11-17.04 10.89-5.76 3.91-7.68 10.19-4.43 16.18 5.8 10.7 11.76 21.35 18.23 31.67 5.46 8.7 9.92 9.71 19.23 5.38 5.84-2.72 11.43-6 17.27-8.72 1.31-.6 3.51-.41 4.81.29 5.91 3.19 11.51 6.96 17.5 9.98 2.73 1.38 3.74 2.95 3.82 5.82.17 6.89.46 13.77.93 20.64.45 6.51 3.99 10.12 10.49 11.07 2.52.36 5.05.59 7.71.9l26.08-.13c1.94-.15 3.51-.22 5.07-.4 9.44-1.07 12.53-4.19 13.16-13.63.42-6.29.64-12.61.82-18.92.08-2.54.97-3.91 3.44-5.15 6-3.02 11.82-6.44 17.43-10.13 2.16-1.42 3.61-1.47 5.73-.32 5.91 3.22 11.89 6.35 17.92 9.34 6.82 3.38 13.45 1.8 17.27-4.49 6.18-10.17 12.25-20.42 17.88-30.89 4.85-9.01 3.59-13.51-4.75-19.39ZM269.63 166.4c-25.7.02-46.62-20.93-46.81-46.7-.19-26.28 21.46-47.29 47.17-46.95 25.35-.07 46.33 21.06 46.47 46.58.15 26.35-21.48 47.05-46.83 47.07" fill="#6FD1FF" data-color="1"/>
            <path d="M459.97 334.67v5.22h-25.95v-46.77H105.16v46.77H79.31v-56.56c0-11.46 4.46-15.95 15.78-15.95 52.09.02 104.18.02 156.28.03h5.28V239.3l26.08-.13v28.24h161.55c11.18 0 15.68 4.47 15.68 15.57v51.67Z" fill="#ccbba0" data-color="2"/>
            <path d="M184.24 354.21v171.78c0 9.28-5.05 14.43-14.37 14.44-51.81.04-103.62.03-155.43 0-9.58 0-14.44-5.06-14.44-14.75 0-56.98 0-113.95.02-170.93 0-10.26 4.68-14.85 15.03-14.86h154.82c9.37 0 14.37 4.94 14.38 14.31Z" fill="#1b9dd9" data-color="3"/>
            <path d="M539.27 353.98c0 57.26 0 114.53-.02 171.79 0 9.67-4.86 14.65-14.51 14.66-51.66.03-103.33.03-154.99 0-9.79 0-14.76-5.04-14.76-14.96-.03-57.13-.03-114.24 0-171.36 0-9.25 5.18-14.21 14.48-14.21h155.71c9.08 0 14.07 5 14.07 14.07Z" fill="#29265b" data-color="4"/>
            <path fill="#010101" d="M162.07 379.92v3.64H20.29v-3.64z" data-color="5"/>
            <path fill="#010101" d="M162.07 400.89v3.64H20.29v-3.64z" data-color="5"/>
            <path fill="#010101" d="M162.07 424.46v3.64H20.29v-3.64z" data-color="5"/>
            <path fill="#010101" d="M521.19 379.92v3.64H379.41v-3.64z" data-color="5"/>
            <path fill="#010101" d="M521.19 400.89v3.64H379.41v-3.64z" data-color="5"/>
            <path fill="#010101" d="M521.19 424.46v3.64H379.41v-3.64z" data-color="5"/>
        </g>
    </g>
</svg>
