<?xml version="1.0" encoding="UTF-8"?>
<svg data-bbox="0.001 0.01 613.45 546.06" viewBox="0 0 613.44 546.07" xmlns="http://www.w3.org/2000/svg" data-type="color">
    <g>
        <path d="M59.11 332.99c-18.73-4.35-37.45-8.69-56.17-13.07-3.26-.76-3.96-3.25-1.33-5.88 7.52-7.52 15.26-14.82 22.88-22.24 12.6-12.27 25.18-24.56 37.76-36.84 5.35-3.8 10.75-.5 16.13-.09l70.47 13.29c43.23 8.15 86.44 16.39 129.69 24.37 6.95 1.28 14.24 2.54 21.15 1.79 11.84-1.28 23.51-4.17 35.25-6.38 42.4-7.98 84.8-15.96 127.19-23.94 14.35-2.7 28.69-5.38 43.04-8.07l15.04-1.98c1.97 2.39 3.72 5.01 5.94 7.15 13.79 13.29 27.66 26.49 41.53 39.69 4.82 4.59 9.78 9.05 14.54 13.7 2.97 2.91 2.27 5.11-1.72 6.45-4 1.34-7.19.87-11.07-1.64-26.02-16.83-54.61-25.43-85.67-23.03-30.18 2.33-57.09 13.41-80.03 33.56-13.57 11.91-23.89 26.25-32.2 42.16-3.74.73-7.62 1.06-11.19 2.3-4 1.39-6.63.28-9.09-2.8-9.03-11.29-18.13-22.51-27.22-33.76-9.89-12.24-19.8-24.48-30.15-37.28-2.16 2.81-3.94 5.14-5.72 7.46-.28.18-.63.3-.83.54-17.3 21.19-34.6 42.39-51.87 63.61-1.86 2.29-3.69 3.02-6.87 2.24-22.03-5.45-44.17-10.49-66.22-15.87-34.45-8.4-68.85-16.96-103.28-25.46Z" fill="#fece8d" data-color="1"/>
        <path d="M196.24 521.96c-28.61-5.83-57.22-11.65-85.82-17.49-15.44-3.15-30.87-6.37-46.32-9.49-3.19-.65-4.97-2.07-4.96-5.66.11-48.12.14-96.24.19-144.36.45.22.87.53 1.35.65 30.61 8.15 61.21 16.32 91.84 24.4 26.62 7.02 53.29 13.83 79.86 21.02 3.7 1 5.76.43 7.9-2.54a3511 3511 0 0 1 27.61-37.8c8.38-11.31 16.92-22.51 25.39-33.76.36.98.73 1.96 1.09 2.93-.05 28.47-.11 56.94-.14 85.41-.05 45.62-.07 91.24-.11 136.86-12.32-2.49-24.65-4.97-36.97-7.46.04-14.48-.05-28.97.2-43.44.06-3.56-1.63-4.56-4.51-5.2-12.93-2.84-25.85-5.78-38.78-8.64-5.71-1.26-11.43-2.44-17.82-3.79z" fill="#fece8d" data-color="1"/>
        <path d="M495.17 546.07c-57.51-1.84-107.99-38.51-119.72-96.5-9.04-44.69 10.12-91.36 47.51-117.43 15.28-10.66 31.93-18.09 50.29-20.63 64.59-8.97 124.88 26.33 138.6 96.35 2.52 12.87 1.79 26.15-.29 39.42-3.41 21.83-12.83 40.47-27.08 56.85-19.34 22.23-43.88 35.24-72.91 39.84-6.21.98-12.47 1.6-16.39 2.1Zm-23.79-94.48v5.92c0 13.66-.03 27.33.03 40.99.02 5.55 2.56 8.51 7.47 8.56q15.495.165 30.99.03c4.94-.05 7.56-2.78 7.61-7.88.08-9-.03-17.99-.05-26.99-.01-6.79 0-13.58 0-20.99h5.88c14.66-.02 29.32-.03 43.99-.08 6.73-.02 9.04-2.32 9.05-8.92.01-9.83 0-19.66-.02-29.49-.01-6.26-2.48-8.75-8.72-8.75-14.83-.01-29.66 0-44.49.02h-5.71v-5.56c-.02-14.33-.02-28.66-.07-42.99-.02-5.96-2.56-8.49-8.46-8.5-9.5-.01-18.99.04-28.49.05-6.47 0-9.02 2.52-9.02 9.01 0 14.16.02 28.32.01 42.49 0 1.75-.16 3.5-.27 5.57-16.89 0-33.21-.02-49.52.01-6.29.01-9.1 2.87-9.12 9.15-.02 9.16.06 18.33 0 27.49-.04 8.43 2.33 10.88 10.99 10.89 13.33.02 26.66-.01 39.99-.03h7.92Z" fill="#5593e1" data-color="2"/>
        <path d="M505.18 255.94c-14.35 2.69-28.7 5.37-43.04 8.07-42.4 7.98-84.8 15.96-127.19 23.94-11.74 2.21-23.41 5.09-35.25 6.38-6.91.75-14.2-.51-21.15-1.79-43.26-7.98-86.47-16.22-129.69-24.37l-70.47-13.29c1.34-.6 2.62-1.46 4.02-1.75 14.92-3.1 29.87-6.07 44.79-9.14 39.75-8.18 79.48-16.42 119.23-24.58 12.65-2.6 25.33-5.05 38-7.57 9.34.74 18.7 1.25 27.99 2.36 3.32.4 6.4 2.49 9.71 3.42 6.8 1.91 13.76 5.31 20.51 4.98 20.11-.96 39.1 3.91 58.24 8.6 6.37 1.56 12.89 2.52 19.35 3.75 5.81 1.67 11.56 3.62 17.44 4.95 21.2 4.81 42.46 9.38 63.67 14.13 1.36.3 2.57 1.26 3.85 1.91Z" fill="#cf8843" data-color="3"/>
        <path d="M392.51 99.95v6.07c0 25.5 0 50.99-.04 76.49 0 8.78-3.34 12.17-11.96 12.18-15.66 0-31.33 0-46.99-.06-8.12-.03-11.91-3.73-11.94-11.92-.09-25.66-.06-51.33-.08-76.99v-5.7h-23.58c-2.33 0-4.97.71-6.93-.15-2.98-1.31-6.48-3.18-7.86-5.81-1.07-2.05-.17-6.33 1.43-8.4 20.77-26.89 41.79-53.59 62.81-80.28 5.66-7.18 13.09-7.15 18.86.03 20.76 25.84 41.43 51.76 62.2 77.59 2.87 3.57 4.01 7.46 2.17 11.59-1.91 4.27-5.79 5.49-10.36 5.41-8.99-.16-17.97-.05-27.74-.05Z" fill="#5593e1" data-color="2"/>
        <path d="M284.42 211.84c-12.67 2.52-25.35 4.97-38 7.57-39.75 8.17-79.48 16.4-119.23 24.58-14.93 3.07-29.87 6.04-44.79 9.14-1.4.29-2.68 1.15-4.02 1.75-5.38-.41-10.77-3.71-16.12.09-9.27-9.75-18.55-19.5-27.81-29.26-5.04-5.31-10.12-10.59-15.03-16.03-1.34-1.48-2.13-3.46-3.17-5.21 1.76-.75 3.45-1.82 5.28-2.21 29.59-6.21 59.19-12.34 88.79-18.49 43.59-9.05 87.19-18.07 130.76-27.21 4.4-.92 7.55.39 9.88 3.9 10.97 16.49 21.88 33.01 32.79 49.54.35.53.45 1.23.67 1.85Z" fill="#ebae66" data-color="4"/>
        <path d="M294.11 542.14c.03-45.62.06-91.24.11-136.86.03-28.47.09-56.94.14-85.41 2.28 2.32 4.85 4.42 6.79 6.99 15.41 20.44 30.73 40.95 46.01 61.49 2.21 2.97 4.51 4.39 8.37 3.08 2.76-.93 5.82-1 8.75-1.45-2.01 11.23-5.52 22.42-5.74 33.68-.66 32.89 9.48 62.44 30.9 87.79.94 1.11 1.8 2.3 3.14 4-5.06 1.39-9.63 2.64-14.2 3.91-26.29 7.31-52.57 14.63-78.87 21.9-1.74.48-3.59.59-5.39.87Z" fill="#ebae66" data-color="4"/>
        <path d="M505.18 255.94c-1.28-.65-2.49-1.61-3.85-1.91-21.22-4.74-42.47-9.32-63.67-14.13-5.89-1.33-11.63-3.29-17.44-4.95v-68.78c7.27 1.84 14.08 3.58 20.89 5.3 40.47 10.19 80.94 20.39 121.42 30.56 6.5 1.64 6.85 2.42 2.05 7.29-14.72 14.94-29.56 29.77-44.36 44.64z" fill="#f1b770" data-color="5"/>
        <path d="M293.27 316.94c-8.47 11.25-17 22.44-25.39 33.76a3511 3511 0 0 0-27.61 37.8c-2.14 2.97-4.2 3.54-7.9 2.54-26.57-7.19-53.25-14-79.86-21.02-30.63-8.08-61.23-16.25-91.84-24.4-.47-.13-.9-.43-1.35-.65-.07-3.99-.14-7.98-.22-11.96 34.42 8.49 68.83 17.06 103.28 25.46 22.05 5.38 44.19 10.42 66.22 15.87 3.18.79 5.01.05 6.87-2.24 17.27-21.22 34.57-42.42 51.87-63.61.2-.24.55-.36.83-.54 1.74 2.98 6.49 4.25 5.08 9.01Z" fill="#ebae66" data-color="4"/>
        <path d="M196.24 521.96V473.6c6.38 1.36 12.11 2.53 17.82 3.79 12.93 2.86 25.84 5.8 38.78 8.64 2.88.63 4.58 1.64 4.51 5.2-.25 14.48-.16 28.96-.2 43.44-13.44-2.7-26.89-5.34-40.31-8.11-6.89-1.42-13.73-3.07-20.59-4.61Z" fill="#ebae66" data-color="4"/>
        <path d="M293.27 316.94c1.41-4.75-3.34-6.03-5.08-9.01 1.78-2.32 3.56-4.65 5.72-7.46 10.35 12.8 20.25 25.03 30.15 37.28 9.08 11.24 18.19 22.47 27.22 33.76 2.46 3.08 5.1 4.18 9.09 2.8 3.57-1.24 7.44-1.57 11.19-2.3-2.42 5.99-4.84 11.99-7.26 17.98-2.93.45-5.99.52-8.75 1.45-3.87 1.31-6.17-.12-8.37-3.08-15.28-20.54-30.6-41.05-46.01-61.49-1.94-2.57-4.51-4.67-6.79-6.99-.36-.98-.73-1.96-1.09-2.93Z" fill="#cf8843" data-color="3"/>
        <path d="M471.38 451.59h-7.92c-13.33.01-26.66.04-39.99.03-8.65-.01-11.03-2.46-10.99-10.89.05-9.16-.02-18.33 0-27.49.01-6.27 2.83-9.13 9.12-9.15 16.31-.03 32.62-.01 49.52-.01.1-2.06.26-3.81.27-5.57.01-14.16-.02-28.32-.01-42.49 0-6.5 2.55-9.01 9.02-9.01 9.5 0 18.99-.06 28.49-.05 5.9 0 8.43 2.54 8.46 8.5.06 14.33.05 28.66.07 42.99v5.56h5.71c14.83 0 29.66-.03 44.49-.02 6.24 0 8.71 2.5 8.72 8.75.02 9.83.03 19.66.02 29.49 0 6.6-2.32 8.89-9.05 8.92-14.66.05-29.32.06-43.99.08h-5.88c0 7.41-.01 14.2 0 20.99.02 9 .13 17.99.05 26.99-.04 5.1-2.66 7.84-7.61 7.88-10.33.1-20.66.08-30.99-.03-4.92-.05-7.45-3.01-7.47-8.56-.06-13.66-.02-27.33-.03-40.99v-5.92Z" fill="#fefefe" data-color="6"/>
    </g>
</svg>
