<?xml version="1.0" encoding="UTF-8"?>
<svg data-bbox="-0.002 0 421.214 472.569" viewBox="0 0 421.21 472.55" xmlns="http://www.w3.org/2000/svg" data-type="color">
    <g>
        <path d="M272.69 256.7c.09-6.48-2.52-9.19-8.68-11.32-12.4-4.28-24.93-8.29-37.04-13.3-22.79-9.42-39.13-25.58-47.61-49.01-3.33-9.21-6.57-18.55-8.63-28.1-4.08-18.86-7.28-37.92-10.93-56.88-1.01-5.27-4.41-8.08-9.27-8.07-4.74 0-7.74 2.52-9.05 7.62-.33 1.29-.49 2.61-.76 3.92-4.68 22.64-8.68 45.45-14.2 67.88-8.18 33.26-29.07 55.47-61.53 66.6-9.44 3.24-18.9 6.39-28.35 9.57-5.61 1.88-8.68 5.24-8.34 9.83.38 5.15 3.63 7.76 8.41 9.27 9.5 3.01 18.92 6.29 28.34 9.56 31.56 10.95 52.63 32.16 60.84 64.74 5.72 22.73 10.07 45.81 14.68 68.8 1.83 9.11 4.01 12.49 10.05 12.48 6-.01 8.28-3.49 10.07-12.54 4.44-22.51 8.63-45.11 14.14-67.37 7.93-32.05 27.8-53.97 59.04-65.18 10.32-3.7 20.7-7.25 31.12-10.67 4.59-1.51 7.52-4.09 7.7-7.83m-62.07 215.84h197.29c1.66 0 3.34.08 4.99-.09 4.52-.45 7.96-4.07 8.28-8.56.32-4.45-2.66-8.6-7.09-9.6-1.6-.36-3.3-.36-4.96-.36-132.19-.02-264.39-.02-396.58 0-1.82 0-3.69 0-5.46.38-4.27.92-7.18 4.78-7.09 9.08.09 4.53 3.35 8.36 7.84 8.98 1.8.25 3.66.15 5.48.15h197.29Zm129.32-334.61c-.23-4.23-2.14-7.31-6.23-8.75-3.76-1.32-7.54-2.61-11.35-3.77-14.21-4.32-22.78-13.87-25.97-28.25-2.05-9.25-3.56-18.63-5.84-27.82-.69-2.78-2.58-5.99-4.9-7.51-5.73-3.74-12.28.22-13.77 7.77-1.8 9.14-3.41 18.32-5.46 27.4-3.32 14.74-12.22 24.41-26.82 28.71-3.19.94-6.29 2.17-9.48 3.09-4.77 1.38-7.41 4.5-7.35 9.42.06 4.76 2.97 7.53 7.36 8.97 4.58 1.5 9.14 3.05 13.68 4.68 10.38 3.74 17.75 10.73 20.66 21.4 2.92 10.73 5.01 21.69 7.28 32.58 1.27 6.09 4.55 9.46 9.74 9.44 4.99-.02 7.96-3.17 9.28-9.23 2.44-11.2 4.66-22.47 7.75-33.49 2.77-9.88 9.67-16.56 19.23-20.25 4.96-1.92 10.04-3.52 15.09-5.19 4.46-1.48 6.87-4.47 7.11-9.19ZM177.41 36.47c0 20.19 16.22 36.55 36.34 36.62 20.01.08 36.6-16.34 36.72-36.36C250.6 16.37 234.24 0 213.77 0c-20.19 0-36.35 16.21-36.36 36.47M311.67 360.9c0-16.92-13.54-30.59-30.27-30.56-16.81.04-30.52 13.72-30.49 30.43.03 16.89 13.6 30.51 30.36 30.49 16.98-.02 30.38-13.41 30.39-30.35Zm12.71-105.73c.01 15.04 11.83 26.95 26.81 27.03 15.04.07 27.26-12.2 27.14-27.28-.11-14.92-12.17-26.81-27.12-26.74-15.04.07-26.84 11.94-26.83 26.99M64 119.52c-14.78.13-26.71 11.99-26.82 26.67-.11 14.64 12.48 27.1 27.16 26.88 14.48-.21 26.47-12.64 26.26-27.22-.21-14.4-12.4-26.46-26.61-26.33Z" fill="#ffffff" data-color="1"/>
        <path d="M272.69 256.7c-.19 3.74-3.11 6.32-7.7 7.83-10.42 3.42-20.8 6.97-31.12 10.67-31.24 11.2-51.11 33.13-59.04 65.18-5.51 22.26-9.7 44.86-14.14 67.37-1.79 9.05-4.07 12.53-10.07 12.54-6.04.01-8.23-3.37-10.05-12.48-4.61-22.99-8.96-46.08-14.68-68.8-8.2-32.58-29.28-53.8-60.84-64.74-9.42-3.27-18.84-6.55-28.34-9.56-4.77-1.51-8.03-4.13-8.41-9.27-.33-4.58 2.73-7.94 8.34-9.83 9.46-3.17 18.92-6.33 28.35-9.57 32.46-11.13 53.35-33.34 61.53-66.6 5.52-22.43 9.52-45.24 14.2-67.88.27-1.3.43-2.63.76-3.92 1.31-5.1 4.32-7.61 9.05-7.62 4.85 0 8.25 2.8 9.27 8.07 3.65 18.96 6.85 38.01 10.93 56.88 2.07 9.55 5.3 18.89 8.63 28.1 8.48 23.43 24.82 39.58 47.61 49.01 12.11 5.01 24.64 9.03 37.04 13.3 6.16 2.12 8.77 4.84 8.68 11.32" fill="#1d71b8" data-color="2"/>
        <path d="M210.62 472.53H13.33c-1.83 0-3.68.09-5.48-.15-4.49-.62-7.75-4.45-7.84-8.98-.09-4.3 2.82-8.17 7.09-9.08 1.77-.38 3.64-.38 5.46-.38 132.19-.02 264.39-.02 396.58 0 1.66 0 3.36 0 4.96.36 4.43 1 7.4 5.16 7.09 9.6-.32 4.49-3.77 8.1-8.28 8.56-1.65.17-3.33.09-4.99.09H210.63Z" fill="#29235c" data-color="3"/>
        <path d="M339.93 137.92c-.24 4.72-2.64 7.71-7.11 9.19-5.05 1.67-10.13 3.28-15.09 5.19-9.56 3.69-16.46 10.38-19.23 20.25-3.09 11.02-5.31 22.29-7.75 33.49-1.32 6.06-4.29 9.21-9.28 9.23-5.19.02-8.47-3.35-9.74-9.44-2.28-10.89-4.36-21.86-7.28-32.58-2.91-10.67-10.28-17.66-20.66-21.4-4.53-1.63-9.1-3.18-13.68-4.68-4.39-1.44-7.3-4.21-7.36-8.97-.06-4.91 2.58-8.03 7.35-9.42 3.19-.93 6.29-2.16 9.48-3.09 14.59-4.29 23.5-13.97 26.82-28.71 2.04-9.08 3.65-18.27 5.46-27.4 1.49-7.54 8.04-11.51 13.77-7.77 2.32 1.51 4.21 4.72 4.9 7.51 2.28 9.19 3.79 18.57 5.84 27.82 3.19 14.38 11.77 23.93 25.97 28.25 3.81 1.16 7.59 2.45 11.35 3.77 4.09 1.44 5.99 4.52 6.22 8.75Z" fill="#f39200" data-color="4"/>
        <path d="M177.41 36.47C177.42 16.21 193.58 0 213.77 0c20.46 0 36.82 16.37 36.7 36.73-.12 20.01-16.71 36.44-36.72 36.36-20.12-.08-36.34-16.43-36.34-36.62" fill="#1d71b8" data-color="2"/>
        <path d="M311.68 360.89c0 16.94-13.41 30.33-30.39 30.35-16.77.02-30.33-13.6-30.36-30.49-.03-16.71 13.68-30.39 30.49-30.43 16.73-.04 30.27 13.63 30.27 30.56Z" fill="#cbbba0" data-color="5"/>
        <path d="M324.39 255.16c-.01-15.05 11.79-26.92 26.83-26.99 14.95-.07 27.01 11.82 27.12 26.74.11 15.07-12.1 27.35-27.14 27.28-14.98-.07-26.8-11.99-26.81-27.03" fill="#cbbba0" data-color="5"/>
        <path d="M64 119.52c14.21-.13 26.4 11.94 26.61 26.33.21 14.58-11.78 27.01-26.26 27.22-14.68.22-27.27-12.24-27.16-26.88.11-14.68 12.04-26.54 26.82-26.67Z" fill="#cbbba0" data-color="5"/>
    </g>
</svg>
