<?xml version="1.0" encoding="UTF-8"?>
<svg data-bbox="-0.01 0 120.86 71.35" viewBox="0 0 120.85 71.35" xmlns="http://www.w3.org/2000/svg" data-type="color">
    <g>
        <path d="M54.69 35.79v32.84c0 2.11-.59 2.72-2.69 2.72H2.74c-2.18 0-2.75-.58-2.75-2.78C0 46.63 0 24.7 0 2.76 0 .55.55 0 2.75 0h49.26c2.12 0 2.68.57 2.68 2.71zm-49.06-.24V59.4c0 3.57 1.65 5.24 5.18 5.24h33.2c3.33 0 5.09-1.76 5.09-5.11V11.82c0-3.38-1.72-5.1-5.09-5.1H10.69c-3.38 0-5.05 1.68-5.05 5.1v23.73Z" fill="#2E536D" data-color="1"/>
        <path d="M109.04 58.5H80.7V12.91h28.34z" fill="#145F56" data-color="2"/>
        <path d="M80.68 64.64h29.34c3.51 0 5.21-1.7 5.21-5.22 0-15.9 0-31.8-.02-47.7 0-3.29-1.74-5.01-5.03-5.01H80.67V0h37.53c2.05 0 2.64.59 2.65 2.63v66.15c0 1.88-.64 2.56-2.49 2.56H81.69c-.31 0-.62-.04-1-.07v-6.64Z" fill="#2E536D" data-color="1"/>
        <path d="M66.28 41.67h3.35V38.9c2.85 1.63 5.47 3.14 8.27 4.75-2.78 1.61-5.38 3.12-8.16 4.73v-2.65h-3.46v-4.05Z" fill="#2E536D" data-color="3"/>
        <path d="M69.77 26.67c2.75 1.58 5.35 3.08 8.12 4.67l-8.15 4.72v-2.69h-3.47v-3.91h3.31c.06-.92.11-1.73.18-2.8Z" fill="#2E536D" data-color="3"/>
        <path d="M65.15 29.33v3.89h-4.39v-3.89z" fill="#2E536D" data-color="3"/>
        <path d="M65.15 41.67v3.94h-4.38v-3.94z" fill="#2E536D" data-color="3"/>
        <path d="M57.6 45.62v-3.97h2.09v3.97z" fill="#2E536D" data-color="3"/>
        <path d="M57.62 33.25V29.3h2.1v3.95z" fill="#2E536D" data-color="3"/>
        <path d="M11.78 12.85h31.13v45.66H11.78z" fill="#145F56" data-color="2"/>
    </g>
</svg>
