<?xml version="1.0" encoding="UTF-8"?>
<svg data-bbox="-0.014 0 223.043 180.87" viewBox="0 0 223.04 180.87" xmlns="http://www.w3.org/2000/svg" data-type="color">
    <g>
        <path d="M172.1 143.22c0-8.77-.22-16.92.09-25.05.17-4.42-1.34-5.68-5.71-5.66-36.65.15-73.3.15-109.96 0-4.37-.02-5.87 1.25-5.71 5.67.3 8.13.08 16.27.08 24.22-11.26 0-22.09.83-32.73-.25C8.82 141.2.81 131.97.45 122.38c-.58-15.8-.66-31.66.01-47.45.47-11.07 10.48-19.89 21.58-20.67 1.66-.12 3.33-.09 5-.09h168.93c17.44 0 26.88 9.31 27 26.76.08 12.16.08 24.33-.01 36.49-.13 15.94-10.07 25.73-26.05 25.81-7.97.04-15.94 0-24.81 0Zm33.48-53.94c-5.23-.12-9.68 4.15-9.71 9.34-.03 4.88 4.26 9.3 9.17 9.46 5.16.17 9.57-4.16 9.59-9.43.02-5.12-3.97-9.25-9.05-9.37" fill="#D9FFF1" data-color="1"/>
        <path d="M50.9 12.5v34.65H38.99V0H184.1v47.08h-11.81V12.5z" fill="#FFF4E8" data-color="2"/>
        <path d="M71.24 180.87h-8v-61.11h8z" fill="#cccccc" data-color="3"/>
        <path d="M92.61 176.19v-56.42h8.2v56.42z" fill="#cccccc" data-color="3"/>
        <path d="M159.79 173.39h-8.05v-53.64h8.05z" fill="#cccccc" data-color="3"/>
        <path d="M115.43 169.39h-7.83v-49.75h7.83z" fill="#cccccc" data-color="3"/>
        <path d="M136.96 119.54h8.08v39.49h-8.08z" fill="#cccccc" data-color="3"/>
        <path d="M86.09 156.12H78v-36.44h8.09z" fill="#cccccc" data-color="3"/>
        <path d="M122.28 119.64h8.06v28.22h-8.06z" fill="#cccccc" data-color="3"/>
        <path d="M205.58 89.28c5.08.12 9.07 4.25 9.05 9.37-.02 5.27-4.43 9.6-9.59 9.43-4.91-.16-9.19-4.58-9.17-9.46.03-5.18 4.48-9.46 9.71-9.34" fill="#FFF4E8" data-color="4"/>
    </g>
</svg>
