<?xml version="1.0" encoding="UTF-8"?>
<svg data-bbox="0 -0.002 281.81 248.403" viewBox="0 0 281.81 248.4" xmlns="http://www.w3.org/2000/svg" data-type="color">
    <g>
        <path d="M168.28 41.48c-.2-.17-.39-.34-.58-.52-.92-.88-1.75-1.85-2.47-2.91-.11-.16-.22-.32-.33-.49-.11-.18-.23-.37-.34-.57-.02-.03-.04-.06-.06-.1q-.21-.345-.39-.72c-.48-.92-.88-1.89-1.18-2.9-.1-.31-.19-.64-.27-.96v-.02a18 18 0 0 1-.34-1.83c-.02-.13-.04-.26-.05-.39-.01-.06-.02-.13-.02-.2-.03-.25-.05-.51-.06-.77-.02-.3-.03-.61-.03-.91-.03-9.29.14-18.59.22-27.88-.65-.09-1.31-.27-1.97-.27-40.17-.01-80.33-.09-120.5 0v42.07h129.13c-.26-.2-.51-.41-.76-.63m53.82.51s-.09.08-.13.12h.24s-.07-.08-.11-.12" fill="#FFF4E8" data-color="1"/>
        <path d="m110.31 159.54-.04.04.27.27c.05.05.09.09.14.13.09.1.19.19.28.28.04-.22.09-.45.13-.69h.01v-.03zm0 0-.04.04.27.27.31-.31zM222.1 41.99s-.09.08-.13.12h.24s-.07-.08-.11-.12M110.31 159.54l-.04.04.27.27c.05.05.09.09.14.13.09.1.19.19.28.28.04-.22.09-.45.13-.69h.01v-.03z" fill="#FCE3B0" data-color="2"/>
        <path d="M210.1 168.89v-.07c-.03-15.8-.08-31.59-.1-47.39v-.88l-.29.29c-10.41 10.32-20.83 20.65-31.22 30.98l-22.68 22.53-11.67 11.58c-.34.34-.69.66-1.08 1-.75.66-1.63 1.37-2.76 2.35-9.78-9.67-19.26-19.04-29.34-29.02-.1.54-.2 1.03-.3 1.49-.03.15-.05.29-.08.42-.08.35-.15.67-.22.97-.26 1.13-.53 1.97-.88 2.58-.05.09-.1.18-.16.26-.05.08-.1.15-.16.22-.4.51-.9.82-1.59 1.01-.09.02-.2.05-.3.07-1.01.22-2.37.23-4.3.23H41.7c-1.16 0-2.62.43-3.43-.11-1.56-1.04-2.75-2.62-4.09-3.98 1.39-1.29 2.77-3.7 4.17-3.71 23.85-.23 47.7-.17 71.96-.17 6.83-6.54 12.33-11.76 17.76-17.04 3.32-3.22 6.53-6.54 9.79-9.82-4.31-.02-8.66.31-12.91-.24-1.71-.23-4.21-2.16-4.54-3.71-.66-3.03 1.77-4.14 4.67-4.1 6.96.08 13.92.1 20.89.14 3.3-3.23 6.61-6.46 9.91-9.69l7.51-7.33.17-.17c1.5-1.46 3-2.93 4.5-4.39l.39-.39c3.3-3.23 6.59-6.46 9.87-9.7 3.34-3.3 6.67-6.61 9.99-9.94 5.84-5.82 11.66-11.67 17.48-17.51 1.53-1.54 2.58-2.6 3.45-3.19l-.13-15.76-.24-.8c-9.66-.01-19.32 0-28.98-.03-.26 0-.51-.01-.76-.02-.18-.01-.36-.02-.54-.04a8 8 0 0 1-.51-.04l-.73-.09c-.08-.01-.16-.02-.23-.04-.26-.04-.52-.09-.77-.14-.24-.05-.48-.1-.72-.17q-.135-.03-.24-.06c-.53-.14-1.04-.3-1.55-.49-.65-.24-1.29-.51-1.9-.83q-.255-.12-.51-.27c-.42-.22-.83-.47-1.22-.74-.16-.1-.32-.21-.48-.32-.06-.04-.13-.09-.19-.14a15 15 0 0 1-1.26-1c-.2-.17-.39-.34-.58-.52-.92-.88-1.75-1.85-2.47-2.91-.11-.16-.22-.32-.33-.49-.11-.18-.23-.37-.34-.57-.02-.03-.04-.06-.06-.1q-.21-.345-.39-.72c-.48-.92-.88-1.89-1.18-2.9-.1-.31-.19-.64-.27-.96v-.02a18 18 0 0 1-.34-1.83c-.02-.13-.04-.26-.05-.39-.01-.06-.02-.13-.02-.2-.03-.25-.05-.51-.06-.77-.02-.3-.03-.61-.03-.91-.03-9.29.14-18.59.22-27.88-.65-.09-1.31-.27-1.97-.27-40.17-.01-80.33-.09-120.5 0-5.65 0-11.31.02-16.96.04C9.74.13.05 10.99.07 23.29.2 90.4.28 157.52 0 224.63c-.05 12.29 10.96 23.85 23.95 23.77 53.98-.32 107.96-.11 161.95-.15 14.17-.01 24.09-9.4 24.16-23.55.09-18.6.08-37.2.04-55.81M34.42 63.17c.8-1.5 2.98-3.15 4.61-3.19 10.99-.28 21.98-.15 32.97-.15h22.48c17.98 0 35.96-.01 53.95.01 1.48 0 3.24-.27 4.37.41 1.36.82 2.84 2.45 3 3.86.11 1.02-1.7 2.57-2.98 3.3-1.04.59-2.58.38-3.89.38-36.14.02-72.27.02-108.4.01-1.33 0-3.12.38-3.87-.31-1.19-1.08-2.7-3.46-2.24-4.32m5.93 28.55c31.46.02 62.93.01 94.39.02 1.33 0 2.93-.3 3.91.32 1.37.87 3.14 2.47 3.13 3.75-.02 1.25-1.86 2.79-3.26 3.61-1 .59-2.58.28-3.91.28-15.65.02-31.3.01-46.95.01s-31.63-.02-47.45.03c-3.05.01-5.98-.23-5.96-4.11.02-4 3.15-3.91 6.1-3.91m-.49 32.89c11.31.06 22.61.07 33.92 0 3.1-.02 6.12.85 6.05 4.12-.07 3.28-3.2 3.95-6.23 3.91-5.65-.08-11.31-.03-16.96-.03s-11.31-.07-16.96.03c-3.02.06-5.46-.68-5.43-4.13.03-3.58 2.71-3.91 5.61-3.9m18.1 74.78c-3.1-.01-6.21-.01-9.31-.02-2.99 0-5.85-.01-8.51-.02-1.65 0-3.61-.55-4.83-1.55-.83-.68-1.32-3.28-.76-3.85 1.22-1.24 3.2-2.39 4.88-2.41 18.49-.16 36.99-.4 55.47.07 1.4.04 3.63.27 6.28.57.1.02.21.03.31.04 8.09.93 19.78 2.43 23.12.92 1.1-.5 2.13-.74 2.97-.66 1.23.1 2.07.9 2.17 2.55v.06c0 1.34-2.8 2.25-4.38 3.52-.51.41-1.44.8-2.27.8H89.94c-10.25 0-21.54 0-31.98-.02" fill="#37a9e1" data-color="3"/>
        <path d="m168.48 102.86-2.46 2.37 2.43-2.43z" fill="#F4C56B" data-color="4"/>
        <path d="M208.87 45.9c-9.66 0-19.32 0-28.98-.03-9.69-.03-17.69-7.94-17.73-17.68-.03-9.29.14-18.59.22-27.88 10.34 9.92 20.74 19.78 31.01 29.78 5.28 5.14 10.33 10.53 15.48 15.81" fill="#e2d4b0" data-color="5"/>
        <path d="M94.48 59.83c17.98 0 35.97 0 53.95.01 1.48 0 3.24-.27 4.37.41 1.36.82 2.84 2.45 3 3.87.11 1.01-1.69 2.57-2.98 3.3-1.04.59-2.58.38-3.89.38-36.13.02-72.26.01-108.4 0-1.33 0-3.12.38-3.87-.3-1.19-1.08-2.7-3.47-2.24-4.33.81-1.5 2.98-3.15 4.62-3.19 10.98-.28 21.98-.14 32.96-.15z" fill="#000000" data-color="6"/>
        <path d="M87.66 99.71c-15.82 0-31.63-.03-47.45.02-3.05 0-5.98-.23-5.96-4.1.02-4.01 3.15-3.91 6.1-3.91 31.47.02 62.93.01 94.4.02 1.32 0 2.93-.3 3.91.31 1.37.87 3.14 2.48 3.13 3.75-.01 1.25-1.86 2.79-3.25 3.61-1.01.6-2.59.28-3.91.28-15.65.01-31.3 0-46.95 0Z" fill="#000000" data-color="6"/>
        <path d="M124.46 191.55s5.12.69 5.29 3.48c.08 1.37.44 4.38-6.65 4.38s-55.31.03-82.96-.06c-1.65 0-3.61-.55-4.84-1.55-.83-.68-1.31-3.28-.75-3.85 1.22-1.24 3.2-2.39 4.88-2.41 18.49-.16 36.99-.4 55.47.07 5.67.15 29.56-.06 29.56-.06" fill="#000000" data-color="6"/>
        <path d="M111.1 159.55q-1.53 7.97-8.5 7.97H41.7c-1.16 0-2.62.43-3.43-.11-1.56-1.03-2.74-2.62-4.09-3.98 1.39-1.29 2.77-3.7 4.17-3.72 24.11-.23 48.22-.17 72.74-.17Z" fill="#000000" data-color="6"/>
        <path d="M56.64 132.62c-5.65 0-11.31-.07-16.96.03-3.02.05-5.46-.68-5.43-4.13.03-3.59 2.72-3.91 5.61-3.9 11.31.06 22.61.06 33.92 0 3.11-.02 6.12.85 6.05 4.12s-3.2 3.95-6.23 3.9c-5.65-.08-11.31-.02-16.96-.02" fill="#000000" data-color="6"/>
        <path d="M145.97 124.77c-2.7 2.64-5.4 5.28-8.1 7.91-4.31-.02-8.67.31-12.91-.25-1.72-.22-4.21-2.16-4.55-3.71-.66-3.03 1.77-4.14 4.67-4.1 6.96.08 13.93.1 20.89.14Z" fill="#000000" data-color="6"/>
        <path d="M210 120.55c.02 16.09.07 32.18.1 48.27l-.39-47.98z" fill="#F4C56B" data-color="4"/>
        <path d="M165.94 105.31c-2.48 2.46-6.2 6.17-8.51 8.45-.48.48-.97.95-1.45 1.42l-.18-.18c3.7-3.55 7.02-6.71 10.14-9.69" fill="#F4C56B" data-color="4"/>
        <path d="M138.73 191.5c-5.16 5.13-10.31 10.25-15.48 15.37-1 1-2.14 1.87-3.84 3.34l-10.65-10.53c-2.41-2.38-4.83-4.77-7.27-7.19-3.97-3.92-7.99-7.89-12.11-11.97 4.98-4.77 9.26-8.84 13.31-12.74 1.52-1.46 3.01-2.9 4.49-4.34.88-.86 1.76-1.72 2.63-2.59z" fill="#006914" data-color="7"/>
        <path d="m265.14 57.11-1.44 10s-29.18 29.97-39.68 40.4c-4.68 4.64-9.34 9.29-14.02 13.92-.09.1-.19.19-.28.28l-.24.24c-6.6 6.56-13.2 13.12-19.81 19.67-1 1-2.14 1.87-3.84 3.34l-.11-.11c-6.38 6.33-20.22 20.06-28.12 27.91-.57.57-1.14 1.13-1.71 1.69l-17.16 17.05-28.07-29.74-.85-.91.87-.87.41-.4v-.02c1.97-1.97 3.92-3.96 5.89-5.94 2.7-2.64 5.4-5.27 8.1-7.91.79-.78 1.59-1.55 2.38-2.33l.74-.73c9.27-9.06 18.56-18.09 27.78-27.2.48-.47.97-.94 1.45-1.42 2.31-2.28 6.03-5.99 8.51-8.45l.08-.08 2.46-2.37.63-.6c1.52-1.46 3.01-2.9 4.49-4.34 1.13-1.1 2.25-2.2 3.36-3.32l.31-.31c2.05-2.05 4.08-4.13 6.13-6.19 2.7-2.64 5.4-5.27 8.1-7.91 10.79-10.56 21.61-21.07 32.35-31.68 3.57-3.53 10.57-10.51 11-10.94l.02-.02 10.72 2.52s-3.67 5.34-2.78 5.56c.89.21 11.56-2.01 11.56-2.01v8.78l8.66-2-4 10.67z" fill="#F4C56B" data-color="4"/>
        <path d="m155.89 174.45-17.16 17.05-28.92-30.65.73-.73 16.92-16.74.74-.73z" fill="#000000" data-color="6"/>
        <path d="m263.7 67.11 1.44-10-6.11 4.23 4-10.67-8.66 2v-8.78s-10.67 2.22-11.56 2.01c-.89-.22 2.78-5.56 2.78-5.56l-10.72-2.52 27.35-6.93c3.42 4.42 7.3 9.74 10.34 14z" fill="#ffdbaa" data-color="8"/>
        <path d="m281.81 24.56-9.25 20.06c-3.04-4.26-6.92-9.58-10.34-14z" fill="#000000" data-color="6"/>
    </g>
</svg>
