<?xml version="1.0" encoding="UTF-8"?>
<svg data-bbox="0.012 0 356.717 479.6" viewBox="0 0 356.72 479.6" xmlns="http://www.w3.org/2000/svg" data-type="color">
    <g>
        <g>
            <path d="M179.02 80.89c46.21.68 92.43 2.05 137.63 13.01 10.72 2.59 21.1 7.2 31.12 11.95 7.94 3.76 10.14 11.08 8.4 19.79-2.71 13.51-8.81 25.06-18.11 35.18-39.51 42.98-78.93 86.01-118.22 129.18-2.2 2.42-3.82 6.22-4.06 9.5-2.69 35.9-5.25 71.8-7.37 107.73-.43 7.25-3.43 10.96-10.02 13.12-13.69 4.48-27.18 4.27-40.81-.27-6.03-2.01-8.87-5.38-9.28-12.09-2.18-36.17-4.7-72.34-7.41-108.47-.25-3.28-1.91-7.06-4.13-9.5-39.6-43.54-79.42-86.89-119.12-130.33-8.17-8.95-13.88-19.3-16.52-31.24-2.91-13.16-.49-19.81 12.07-25.23 10.84-4.7 22.33-8.35 33.87-10.92 43.44-9.63 87.71-10.76 131.99-11.41h-.02Zm-15.4 14c-32.84.86-71 1.97-108.44 10.43-8.95 2.03-17.78 4.93-26.29 8.37-6.08 2.46-5.95 5.87 0 8.93 4.08 2.11 8.48 3.7 12.89 4.93 36.83 10.22 74.74 12.4 112.63 13.75 43.33 1.54 86.58-.41 129.44-7.08 14.08-2.18 27.83-6.63 41.61-10.45 2.46-.68 4.33-3.49 6.49-5.3-2.16-2.03-4-4.99-6.57-5.91-7.96-2.89-16.09-5.58-24.35-7.35-43.54-9.34-87.75-10.39-137.39-10.32z" fill="#f39208" data-color="1"/>
            <path d="M201.82 423.61c9.4.06 16.57 7.34 16.38 16.65-.18 9.13-7.85 16.45-17.03 16.27-8.94-.18-16.18-7.99-16.01-17.28.16-8.76 7.55-15.7 16.66-15.64" fill="#ccbba0" data-color="2"/>
            <path d="M182.26 394.81c.01 7.73-5.81 13.77-13.22 13.73-7.68-.04-13.9-6.15-13.91-13.65 0-7.56 6.26-13.79 13.82-13.7 7.57.08 13.31 5.95 13.32 13.62z" fill="#ccbba0" data-color="2"/>
            <path d="M171.3 479.6c-7.65-.11-13.73-6.37-13.53-13.93.19-7.38 6.48-13.42 13.84-13.3 7.43.13 13.59 6.33 13.54 13.63-.05 7.62-6.25 13.7-13.86 13.59h.01Z" fill="#3ba9e0" data-color="3"/>
            <path d="M162.42 94.89c49.63-.08 93.85.97 137.39 10.32 8.27 1.77 16.4 4.45 24.35 7.35 2.57.94 4.41 3.88 6.57 5.91-2.14 1.81-4.02 4.62-6.49 5.3-13.79 3.84-27.53 8.27-41.61 10.45-42.86 6.67-86.13 8.64-129.44 7.08-37.89-1.35-75.79-3.53-112.63-13.75-4.43-1.23-8.83-2.83-12.89-4.93-5.93-3.06-6.06-6.47 0-8.93 8.5-3.43 17.33-6.36 26.29-8.37 37.44-8.46 75.62-9.57 108.44-10.43z" fill="#ccbba0" data-color="2"/>
            <path d="M45.88 80.89c-7.94-10.24-15.32-19.75-22.69-29.27.08-.43.16-.86.25-1.3 2.72 0 5.46-.18 8.16.05 3.37.28 4.57-.89 4.52-4.4-.17-13.84.04-27.69-.12-41.53C35.96.96 37.12-.21 40.52.03c3.6.25 7.24.23 10.84 0 3.17-.2 4.43.76 4.4 4.14-.1 13.84.14 27.69 0 41.53-.04 3.58 1.03 5.02 4.65 4.69 2.55-.23 5.14-.05 7.72-.05.2.34.4.69.6 1.03-7.47 9.64-14.93 19.28-22.86 29.51Z" fill="#ccbba0" data-color="2"/>
            <path d="M317.6 114.35c-7.92-10.19-15.36-19.78-22.81-29.37.13-.4.25-.79.38-1.19h7.94c4.72-.03 4.62-.03 4.61-4.88-.04-13.73.1-27.46-.02-41.19-.03-3.29 1.06-4.43 4.32-4.22 3.85.24 7.74.22 11.59 0 3.05-.17 3.85 1.13 3.84 3.94-.09 13.85.07 27.71-.13 41.56-.06 3.76 1.01 5.26 4.85 4.85 2.53-.27 5.11-.05 7.67-.05.17.36.35.73.52 1.09-7.4 9.57-14.79 19.14-22.76 29.46" fill="#3ba9e0" data-color="3"/>
            <path d="M187.64 109.98c-7.28 9.4-14.55 18.8-22.41 28.96-7.81-10.03-15.2-19.53-22.6-29.03.16-.37.32-.73.49-1.1 2.67 0 5.36-.22 8 .05 3.53.36 4.55-1.2 4.53-4.47-.08-13.22-.03-26.43-.02-39.65 0-4.08 2.06-6.13 6.19-6.14 2.99 0 5.99.14 8.97-.04 3.06-.18 4.08.93 4.04 4.08-.16 13.59-.07 27.18-.06 40.77q0 5.34 5.4 5.34h6.96c.17.41.35.81.52 1.22h-.01Z" fill="#302d7e" data-color="4"/>
        </g>
    </g>
</svg>
