<?xml version="1.0" encoding="UTF-8"?>
<svg data-bbox="-0.003 -0.001 334.145 411.756" viewBox="0 0 334.14 411.76" xmlns="http://www.w3.org/2000/svg" data-type="color">
    <g>
        <path d="M.22 206c0 55.75-.03 111.49.02 167.24.02 22.1 16.41 38.49 38.39 38.5q128.55.03 257.1 0c21.77 0 38.32-16.2 38.33-38.03.09-111.83.1-223.65 0-335.48C334.04 16.38 317.48.21 295.7.21 210.67.2 125.64.53 40.61 0 18.25-.14-.29 17.27 0 40.76.69 95.83.22 150.92.22 206" fill="#F8F2E8" data-color="1"/>
        <path d="M.22 206C.22 150.92.69 95.84 0 40.76-.29 17.27 18.25-.14 40.61 0c85.03.53 170.07.2 255.1.21 21.78 0 38.34 16.17 38.36 38.02.1 111.83.09 223.65 0 335.48-.02 21.84-16.56 38.03-38.33 38.03q-128.55.03-257.1 0c-21.98 0-38.37-16.4-38.39-38.5C.2 317.49.23 261.75.24 206Zm166.42-49.38c36.78 0 73.55.02 110.33-.01 12.35-.01 16.93-4.65 16.92-16.83-.01-26.46.01-52.92-.02-79.38-.01-9.78-5.32-15.14-15.13-15.15q-111.33-.045-222.66 0c-10.51 0-15.64 5.2-15.64 15.63-.01 26.13 0 52.25 0 78.38 0 12.88 4.43 17.35 17.38 17.35 36.28.01 72.56 0 108.83 0Zm73.41 154.98v51.89c0 7.27 2.12 9.35 9.52 9.36 11.81.02 23.62.02 35.43-.01 6.54-.02 8.89-2.38 8.9-9.08.02-34.93.03-69.85 0-104.78 0-6.49-2.56-8.97-9.13-8.99-11.81-.04-23.62-.03-35.43 0-6.92.01-9.28 2.35-9.29 9.22-.02 17.46 0 34.93 0 52.39m-12.86-101.91h.02c0-6.65.03-13.3 0-19.95-.03-4.74-2.54-7.54-7.27-7.58-12.82-.12-25.63-.13-38.45-.02-5.11.04-7.9 2.58-7.97 7.63-.19 13.31-.18 26.63 0 39.94.06 4.98 2.58 7.37 7.47 7.42 12.98.12 25.97.12 38.95.02 4.96-.04 7.19-2.45 7.25-7.48.08-6.66.02-13.32.02-19.97Zm-120.05 135.6h.02c0 6.82-.1 13.64.03 20.46.09 4.72 2.42 7.04 7.14 7.07 12.97.09 25.95.07 38.92 0 4.83-.03 7.51-2.45 7.58-7.33.17-13.31.17-26.62 0-39.92-.06-5.12-2.8-7.65-7.84-7.69-12.64-.09-25.28-.09-37.93-.01-5.41.03-7.84 2.52-7.91 7.96-.08 6.49-.02 12.97-.02 19.46Zm120.04.29c0-6.65.07-13.31-.02-19.96-.07-5.16-2.52-7.7-7.61-7.74q-18.96-.135-37.92 0c-5.4.04-8.07 2.53-8.13 7.91-.15 13.14-.16 26.28 0 39.42.06 5.19 2.66 7.58 7.81 7.61q18.96.09 37.92 0c5.65-.02 7.87-2.2 7.95-7.78.09-6.49.02-12.97.02-19.46ZM94.26 209.98c0-6.49.04-12.98-.01-19.46-.05-5.63-2.61-8.35-8.13-8.39a2747 2747 0 0 0-37.43 0c-5.35.04-8.19 2.69-8.24 7.88q-.18 19.71 0 39.42c.05 5.15 2.63 7.68 7.7 7.71 12.81.09 25.62.1 38.43 0 5.2-.04 7.55-2.48 7.64-7.7.1-6.49.03-12.98.03-19.46Zm145.76-.37h-.05c0 6.66-.08 13.32.03 19.97.08 4.83 2.58 7.51 7.36 7.56 12.98.13 25.97.12 38.95.02 4.9-.04 7.46-2.5 7.52-7.38q.225-19.965.06-39.93c-.04-4.75-2.81-7.65-7.38-7.7-12.98-.14-25.97-.15-38.95 0-4.88.06-7.49 3.06-7.52 7.98-.04 6.49-.01 12.98-.01 19.47Zm-132.88.02c0 6.65-.1 13.3.03 19.95.1 5.39 2.21 7.53 7.64 7.57 12.81.09 25.62-.03 38.44 0 4.69.01 7.43-2.44 7.5-6.85.24-13.64.2-27.28.02-40.92-.06-4.41-2.73-7.21-7.28-7.25-12.98-.12-25.96-.13-38.94 0-4.78.05-7.3 2.76-7.38 7.54-.11 6.65-.03 13.3-.03 19.95ZM94.27 277.4c0-6.32.05-12.64-.01-18.96-.05-5.86-2.63-8.43-8.57-8.46-12.14-.06-24.28-.05-36.42 0-6.21.02-8.8 2.54-8.84 8.78-.08 12.64-.07 25.28 0 37.92.04 5.73 2.55 8.25 8.16 8.28 12.47.07 24.95.06 37.42.02 5.79-.02 8.17-2.38 8.24-8.12.07-6.49.02-12.97.02-19.46m132.92.39c0-6.32.03-12.64 0-18.96-.04-6.56-2.36-8.84-9.06-8.86-11.97-.04-23.94-.05-35.92-.01-5.95.02-8.69 2.53-8.74 8.37-.11 12.8-.12 25.61 0 38.41.05 5.83 2.52 8.19 8.24 8.22 12.47.07 24.94.07 37.41.03 5.85-.02 7.99-2.24 8.05-8.25.07-6.32.01-12.64.02-18.96Zm-120.04-.41c0 6.48-.05 12.97.02 19.45.06 5.95 2.21 8.13 8.14 8.15 12.47.05 24.94.04 37.41-.01 5.46-.02 8.05-2.33 8.12-7.82.16-13.13.17-26.27 0-39.41-.07-5.29-2.86-7.72-8.3-7.75-12.47-.07-24.94-.08-37.41 0-5.41.03-7.89 2.56-7.96 7.94-.08 6.48-.02 12.97-.02 19.45m-12.88 68.08c0-6.32.04-12.64-.01-18.96-.05-6.03-2.49-8.62-8.34-8.65-12.47-.06-24.95-.06-37.42.03-5.29.04-7.99 2.67-8.04 7.99-.11 12.97-.1 25.94-.02 38.92.03 5.42 2.61 8 7.91 8.03 12.64.07 25.28.06 37.92 0 5.42-.03 7.92-2.52 7.98-7.89.08-6.49.02-12.97.02-19.46Z" fill="#6FD1FF" data-color="2"/>
        <path d="M166.65 156.63H57.82c-12.95 0-17.38-4.47-17.38-17.35.01-26.13 0-52.25 0-78.38 0-10.43 5.13-15.62 15.64-15.63q111.33-.045 222.66 0c9.81 0 15.12 5.36 15.13 15.15.04 26.46.01 52.92.02 79.38 0 12.18-4.57 16.81-16.92 16.83-36.78.03-73.55.01-110.33.02Z" fill="#36a9e1" data-color="3"/>
        <path d="M240.05 311.6c0-17.46-.01-34.93 0-52.39 0-6.87 2.37-9.2 9.29-9.22q17.715-.045 35.43 0c6.56.02 9.12 2.5 9.13 8.99.03 34.93.03 69.85 0 104.78 0 6.7-2.35 9.06-8.9 9.08-11.81.03-23.62.03-35.43.01-7.4-.01-9.52-2.09-9.52-9.36-.01-17.3 0-34.59 0-51.89" fill="#F8F2E8" data-color="1"/>
        <path d="M227.2 209.7c0 6.66.06 13.32-.02 19.97-.06 5.03-2.29 7.45-7.25 7.48-12.98.1-25.97.09-38.95-.02-4.88-.04-7.4-2.44-7.47-7.42-.17-13.31-.18-26.63 0-39.94.07-5.04 2.87-7.59 7.97-7.63 12.82-.1 25.63-.1 38.45.02 4.73.05 7.24 2.84 7.27 7.58.04 6.65 0 13.3 0 19.95h-.02Z" fill="#F8F2E8" data-color="1"/>
        <path d="M107.15 345.3c0-6.49-.06-12.98.02-19.46.07-5.44 2.5-7.93 7.91-7.96 12.64-.07 25.28-.07 37.93.01 5.04.04 7.78 2.57 7.84 7.69.16 13.31.16 26.62 0 39.92-.06 4.88-2.74 7.3-7.58 7.33-12.97.08-25.95.09-38.92 0-4.71-.03-7.04-2.36-7.14-7.07-.14-6.82-.03-13.64-.03-20.46h-.02Z" fill="#F8F2E8" data-color="1"/>
        <path d="M227.19 345.58c0 6.49.07 12.98-.02 19.46-.08 5.58-2.3 7.75-7.95 7.78q-18.96.09-37.92 0c-5.14-.03-7.75-2.41-7.81-7.61-.15-13.14-.14-26.28 0-39.42.06-5.38 2.73-7.87 8.13-7.91q18.96-.135 37.92 0c5.09.04 7.54 2.58 7.61 7.74.1 6.65.02 13.31.03 19.96Z" fill="#F8F2E8" data-color="1"/>
        <path d="M94.26 209.98c0 6.49.08 12.98-.03 19.46-.08 5.23-2.44 7.66-7.64 7.7q-19.215.135-38.43 0c-5.07-.04-7.65-2.57-7.7-7.71q-.195-19.71 0-39.42c.05-5.19 2.89-7.84 8.24-7.88 12.48-.09 24.95-.08 37.43 0 5.51.03 8.08 2.75 8.13 8.39.06 6.49.01 12.98 0 19.46" fill="#F8F2E8" data-color="1"/>
        <path d="M240.02 209.62c0-6.49-.03-12.98.01-19.47.03-4.92 2.64-7.92 7.52-7.98 12.98-.15 25.97-.14 38.95 0 4.57.05 7.34 2.95 7.38 7.7.11 13.31.1 26.62-.06 39.93-.06 4.88-2.61 7.34-7.52 7.38-12.98.1-25.97.11-38.95-.02-4.78-.05-7.28-2.73-7.36-7.56-.11-6.66-.03-13.31-.03-19.97h.05Z" fill="#29235c" data-color="4"/>
        <path d="M107.15 209.64c0-6.65-.08-13.3.03-19.95.08-4.77 2.6-7.49 7.38-7.54 12.98-.14 25.96-.13 38.94 0 4.56.04 7.22 2.84 7.28 7.25.18 13.64.22 27.28-.02 40.92-.08 4.4-2.81 6.86-7.5 6.85-12.81-.04-25.62.08-38.44 0-5.43-.04-7.54-2.18-7.64-7.57-.13-6.65-.03-13.3-.02-19.95Z" fill="#F8F2E8" data-color="1"/>
        <path d="M94.27 277.41c0 6.49.06 12.97-.02 19.46-.07 5.73-2.45 8.09-8.24 8.12-12.47.05-24.95.05-37.42-.02-5.62-.03-8.13-2.55-8.16-8.28q-.12-18.96 0-37.92c.04-6.24 2.63-8.76 8.84-8.78 12.14-.04 24.28-.05 36.42 0 5.94.03 8.52 2.6 8.57 8.46.06 6.32.01 12.64.01 18.96" fill="#F8F2E8" data-color="1"/>
        <path d="M227.19 277.8c0 6.32.05 12.64-.01 18.96-.06 6.01-2.2 8.23-8.05 8.25q-18.705.075-37.41-.03c-5.71-.03-8.18-2.39-8.24-8.22-.12-12.8-.12-25.61 0-38.41.05-5.85 2.79-8.35 8.74-8.37 11.97-.04 23.94-.02 35.92.01 6.69.02 9.02 2.3 9.06 8.86.04 6.32 0 12.64 0 18.96Z" fill="#F8F2E8" data-color="1"/>
        <path d="M107.15 277.39c0-6.48-.06-12.97.02-19.45.07-5.38 2.55-7.9 7.96-7.94 12.47-.08 24.94-.06 37.41 0 5.44.03 8.23 2.45 8.3 7.75.17 13.13.16 26.27 0 39.41-.07 5.49-2.65 7.8-8.12 7.82-12.47.06-24.94.07-37.41.01-5.93-.03-8.08-2.2-8.14-8.15-.07-6.48-.02-12.97-.02-19.45" fill="#F8F2E8" data-color="1"/>
        <path d="M94.27 345.48c0 6.49.06 12.97-.02 19.46-.07 5.37-2.57 7.86-7.98 7.89q-18.96.09-37.92 0c-5.3-.03-7.88-2.61-7.91-8.03-.08-12.97-.09-25.95.02-38.92.04-5.32 2.75-7.95 8.04-7.99 12.47-.08 24.95-.08 37.42-.03 5.84.03 8.29 2.62 8.34 8.65.05 6.32.01 12.64.01 18.96Z" fill="#F8F2E8" data-color="1"/>
    </g>
</svg>
