<?xml version="1.0" encoding="UTF-8"?>
<svg data-bbox="0 0.003 340.656 334.628" viewBox="0 0 340.66 334.63" xmlns="http://www.w3.org/2000/svg" data-type="color">
    <g>
        <path d="M340.62 158.86c-.07-5.82-2.51-9.29-8-11.29-3.85-1.4-7.78-2.6-11.64-3.97-4.14-1.47-4.92-3.41-2.98-7.46 1.72-3.59 3.6-7.11 5.3-10.72 2.56-5.46 1.88-9.65-2.32-14.01-3.72-3.86-7.51-7.66-11.36-11.4-4.46-4.35-8.65-5-14.31-2.29-3.48 1.67-6.89 3.47-10.36 5.15-4.33 2.08-6.31 1.23-7.88-3.36-1.32-3.89-2.49-7.83-3.91-11.67-1.86-5.03-5.46-7.46-10.84-7.57-1.59-.04-3.17-.01-5.17-.01v173.82c1.59 0 2.57.01 3.55-.01 7.95-.08 10.76-2.16 13.35-9.83 1.11-3.3 2.21-6.61 3.39-9.89 1.41-3.93 3.4-4.78 7.2-3 3.72 1.74 7.34 3.68 11.06 5.43 5.27 2.47 9.51 1.81 13.69-2.24 3.94-3.82 7.81-7.72 11.6-11.69 4.1-4.3 4.72-8.6 2.14-14.04-1.65-3.49-3.45-6.9-5.13-10.38-2.07-4.3-1.22-6.34 3.31-7.93 3.76-1.32 7.56-2.49 11.29-3.86 5.45-2 7.95-5.55 8.01-11.3.06-5.49.06-10.99.01-16.48m-82.98 37.15v-57.8c14.95 1.87 25.66 14.3 25.47 29.36-.19 14.72-11.19 27.06-25.47 28.44" fill="#f39200" data-color="1"/>
        <path d="M258.15 259.02c0 17.47.05 34.95-.02 52.42-.05 14.65-8.66 23.18-23.34 23.18-70.49.02-140.98.01-211.47 0-11.89 0-20.03-5.78-22.62-16.15-.5-2.02-.55-4.2-.55-6.3-.02-85.6.1-171.21-.15-256.81-.04-11.85 8.96-22.79 22.55-22.44 15.95.42 31.93.1 47.9.1h4.31l-.11 7.07v12.97l.04 8.06c.59.37 1.1.95 1.56 1.86 1.55 3.09 4.48 4.57 7.99 4.57q45.84.03 91.68 0c3.67 0 6.23-1.91 8.31-4.86.27-.4.69-.81 1.15-1.14V40.38l.09-7.43h3.98c15.35 0 30.69-.04 46.04.01 14.04.05 22.51 8.53 22.64 22.63.08 8.07.02 16.15.02 24.67z" fill="#cbbba0" data-color="2"/>
        <path d="m185.47 32.95-.09 7.43v21.17c-.46.33-.88.74-1.15 1.14-2.08 2.95-4.64 4.86-8.31 4.86q-45.84.03-91.68 0c-3.51 0-6.44-1.48-7.99-4.57-.46-.91-.97-1.49-1.56-1.86l-.04-8.06V40.09l.11-7.07c.13-.77.26-1.33.31-1.91.5-5.86 3.8-9.04 9.71-9.09 8.47-.08 16.94-.02 25.87-.02-.26-7.32 1.8-13.54 7.57-18.02 3.79-2.94 8.12-4.18 12.93-3.95 10.69.5 16.41 7.04 18.86 21.97h22.32c9.34 0 11.28 1.58 13.14 10.95" fill="#29235c" data-color="3"/>
        <path d="M100.37 239.84c-.02 14.85-.02 29.7-.01 44.54.01 3.45-1.66 4.92-5.1 4.88-7.36-.1-14.72-.03-22.08-.03s-14.72-.07-22.08.03c-3.49.05-5.06-1.51-5.05-4.92.01-14.85.02-29.7 0-44.55-.01-3.2 1.35-4.8 4.72-4.78 14.97.06 29.94.05 44.91 0 3.38-.01 4.7 1.63 4.69 4.83" fill="#000000" data-color="4"/>
        <path d="M100.35 210.55c-.02 4.08-1.25 5.22-5.47 5.24-7.36.03-14.71 0-22.07 0s-14.21.03-21.32 0c-4.24-.02-5.41-1.1-5.42-5.27-.04-14.6-.04-29.19 0-43.78.01-4.09 1.04-5.17 5.08-5.18 14.71-.05 29.43-.05 44.14 0 4.02.01 5.05 1.11 5.06 5.21.03 14.59.04 29.19 0 43.78" fill="#36a9e1" data-color="5"/>
        <path d="M100.35 89.3q.045 21.69 0 43.38c-.01 4.29-1.06 5.32-5.26 5.33-7.35.03-14.7.01-22.06.01s-14.71-.09-22.06.04c-3.57.06-4.93-1.61-4.93-4.97.03-14.71-.01-29.42.03-44.13.02-3.94 1.16-4.97 5.24-4.97 14.58-.02 29.17-.02 43.75 0 4.21 0 5.28 1.05 5.29 5.31" fill="#f39200" data-color="1"/>
        <path d="M163.13 277.2H120.1c-1 0-2.26.31-2.93-.17-1.19-.85-2.76-2.18-2.8-3.35-.04-1.11 1.49-2.59 2.69-3.32.94-.57 2.42-.32 3.66-.32 28.44-.01 56.87-.02 85.31 0 2.78 0 6.51-.64 6.57 3.52.05 4.15-3.59 3.64-6.44 3.64z" fill="#000000" data-color="4"/>
        <path d="M163.68 196.73h42.28c1.12 0 2.47-.35 3.31.15 1.33.77 3.4 2.35 3.22 3.18-.29 1.41-1.99 2.64-3.32 3.65-.56.42-1.69.1-2.57.1h-86.43c-1 0-2.3.35-2.93-.14-1.23-.96-2.73-2.34-2.86-3.68-.1-.95 1.71-2.36 2.94-3.08.85-.49 2.19-.18 3.31-.18h43.03Z" fill="#000000" data-color="4"/>
        <path d="M163.4 180.62h-43.03c-1.12 0-2.52.34-3.3-.19-1.19-.81-2.68-2.24-2.69-3.41 0-1.1 1.57-2.53 2.78-3.22.96-.55 2.43-.27 3.67-.27 28.44 0 56.88-.02 85.31.01 2.77 0 6.52-.66 6.46 3.58-.06 4.16-3.74 3.5-6.55 3.5-14.22.02-28.44 0-42.66 0Z" fill="#000000" data-color="4"/>
        <path d="M163.78 254.01h-43.4c-1.12 0-2.51.33-3.3-.2-1.19-.81-2.69-2.23-2.71-3.41-.01-1.1 1.56-2.54 2.77-3.24.96-.55 2.43-.26 3.67-.26 28.44 0 56.87-.02 85.31.01 2.77 0 6.53-.69 6.47 3.56-.05 4.14-3.72 3.52-6.54 3.53-14.09.02-28.19 0-42.28 0Z" fill="#000000" data-color="4"/>
        <path d="M163.5 95.96c14.72 0 29.44.02 44.16-.02 2.61 0 5.05.31 5.01 3.52-.04 3.22-2.56 3.42-5.12 3.42q-44.16-.045-88.32 0c-2.61 0-5.05-.34-5.01-3.53.04-3.2 2.53-3.42 5.12-3.41 14.72.05 29.44.02 44.16.02" fill="#000000" data-color="4"/>
        <path d="M163.38 126.07h-43.04c-1.12 0-2.51.34-3.3-.18-1.18-.78-2.7-2.21-2.68-3.34s1.64-2.38 2.8-3.26c.57-.42 1.69-.12 2.57-.12h87.2c.75 0 1.72-.29 2.2.07 1.32 1 2.42 2.27 3.61 3.43-1.24 1.12-2.35 2.43-3.75 3.29-.73.45-1.95.1-2.95.1h-42.66Z" fill="#000000" data-color="4"/>
    </g>
</svg>
