<?xml version="1.0" encoding="UTF-8"?>
<svg data-bbox="-0.005 -0.004 322.138 316.972" viewBox="0 0 322.14 316.97" xmlns="http://www.w3.org/2000/svg" data-type="color">
    <g>
        <path d="M206.02 146.46v134.79c0 5.68-.03 5.69-5.57 5.69h-78.63c-5.72 0-5.74 0-5.74-5.9 0-89.74 0-179.47.02-269.21 0-8.59 3.2-11.8 11.74-11.81 22.22-.01 44.43-.02 66.65 0 8.19 0 11.54 3.41 11.54 11.64v134.79Zm-23.98-46.41V39.81c0-5.31-.06-5.36-5.49-5.37-10.48-.01-20.95-.02-31.43 0-4.86 0-5.04.17-5.04 5.07-.01 40.28.02 80.57-.08 120.85 0 3.52 1.3 4.52 4.63 4.47 10.84-.15 21.69-.19 32.52 0 3.72.06 5-1.1 4.97-4.91-.15-19.95-.07-39.91-.08-59.86Zm-2.91 134.58c0-10.35-7.59-18.21-17.63-18.25-10.79-.04-18.5 7.49-18.55 18.13-.05 10.4 7.66 18.01 18.23 17.99 10.27-.02 17.94-7.65 17.94-17.87Z" fill="#6FD1FF" data-color="1"/>
        <path d="M16.53 146.49V11.73c0-8.1 3.5-11.68 11.54-11.68C50.53.03 72.99.02 95.45.03c7.38 0 10.93 3.74 10.93 11.51.01 62.14.01 124.28.02 186.42v83.85c0 4.97-.17 5.14-4.97 5.14-26.58 0-53.16 0-79.74-.01-5.09 0-5.16-.1-5.16-5.3 0-45.04 0-90.09-.01-135.13Zm23.88-47.11c0 20.32.05 40.65-.05 60.97-.01 3.13.84 4.5 4.21 4.45 11.34-.15 22.69-.12 34.03-.03 2.92.02 3.93-1.09 3.93-3.97-.06-40.77-.08-81.55-.01-122.32 0-3.15-1.2-4.1-4.2-4.07-10.97.11-21.95.03-32.92.05-4.89 0-4.98.1-4.99 5.07-.01 19.95 0 39.9 0 59.85m39.06 135.35c0-10.75-7.38-18.34-17.85-18.35-10.6 0-19.14 8.28-18.55 18.77.48 8.53 6.97 17.45 18.44 17.37 10.62-.07 17.95-7.28 17.96-17.8Z" fill="#8BE6B5" data-color="2"/>
        <path d="M305.59 146.06v134.76q0 6.1-6.25 6.1h-77.87c-5.71 0-5.73 0-5.73-5.49V11.53c0-8.12 3.44-11.53 11.68-11.53 22.34-.01 44.67 0 67.01.01 7.48 0 11.17 3.71 11.17 11.28.01 44.92 0 89.84 0 134.76Zm-65.95-46.41h-.01c0 20.2.06 40.4-.06 60.6-.02 3.38 1.06 4.62 4.51 4.57 11.09-.16 22.19-.19 33.28-.02 3.57.05 4.41-1.38 4.4-4.66-.08-40.4-.08-80.8 0-121.19 0-3.37-1.03-4.62-4.49-4.57-10.85.17-21.7.05-32.54.07-4.98 0-5.08.11-5.09 4.98zm2.99 134.86c-.05 10.51 7.32 17.84 17.79 18.03 11.26.21 18.33-8.72 18.77-17.91.46-9.49-8.37-18.2-18.09-18.24-10.88-.06-18.42 7.34-18.47 18.12" fill="#36a9e1" data-color="3"/>
        <path d="M161.06 316.84H6.03q-6 0-6.01-5.98c0-3.49.1-6.99-.02-10.48-.09-2.73 1.03-3.81 3.76-3.76 5.61.11 11.23.03 16.85.03h295.07c1.12 0 2.43-.35 3.32.11 1.18.61 2.83 1.81 2.9 2.84.31 4.72.31 9.49 0 14.21-.07 1.06-1.68 2.33-2.87 2.9-1.02.49-2.45.13-3.7.13H161.05Z" fill="#F1E5D6" data-color="4"/>
        <path d="M182.05 100.05c0 19.96-.08 39.91.07 59.86.03 3.81-1.26 4.98-4.97 4.91-10.84-.18-21.68-.14-32.52 0-3.32.05-4.63-.95-4.63-4.47.1-40.28.06-80.57.08-120.85 0-4.89.18-5.06 5.04-5.07 10.48-.01 20.95 0 31.43 0 5.44 0 5.49.05 5.49 5.37v60.24Z" fill="#000000" data-color="5"/>
        <path d="M179.13 234.64c0 10.22-7.67 17.85-17.94 17.87-10.57.02-18.28-7.59-18.23-17.99.05-10.64 7.75-18.17 18.55-18.13 10.04.04 17.63 7.9 17.63 18.25Z" fill="#000000" data-color="5"/>
        <path d="M40.42 99.38V39.53c0-4.97.09-5.06 4.99-5.07 10.97-.02 21.95.06 32.92-.05 3-.03 4.2.92 4.2 4.07-.07 40.77-.05 81.55.01 122.32 0 2.88-1.01 4-3.93 3.97-11.34-.1-22.69-.13-34.03.03-3.37.04-4.23-1.32-4.21-4.45.1-20.32.05-40.65.05-60.97" fill="#000000" data-color="5"/>
        <path d="M79.48 234.73c0 10.52-7.34 17.73-17.96 17.8-11.48.08-17.96-8.84-18.44-17.37-.59-10.49 7.95-18.78 18.55-18.77 10.47 0 17.86 7.6 17.85 18.35Z" fill="#000000" data-color="5"/>
        <path d="M239.64 99.65V39.43c0-4.87.11-4.97 5.09-4.98 10.85-.02 21.7.09 32.54-.07 3.46-.05 4.49 1.2 4.49 4.57-.08 40.4-.08 80.8 0 121.19 0 3.27-.83 4.71-4.4 4.66-11.09-.17-22.19-.15-33.28.02-3.45.05-4.53-1.19-4.51-4.57.11-20.2.06-40.4.06-60.6z" fill="#000000" data-color="5"/>
        <path d="M242.63 234.51c.05-10.78 7.59-18.18 18.47-18.12 9.72.05 18.55 8.75 18.09 18.24-.45 9.19-7.51 18.12-18.77 17.91-10.46-.2-17.84-7.52-17.79-18.03" fill="#000000" data-color="5"/>
    </g>
</svg>
